<svg width="24.000000" height="24.000000" viewBox="0 0 24 24" fill="none" xmlns="http://www.w3.org/2000/svg" xmlns:xlink="http://www.w3.org/1999/xlink">
	<desc>
			Created with Pixso.
	</desc>
	<defs/>
	<rect id="feather-icon / heart" width="24.000000" height="24.000000" fill="#FFFFFF" fill-opacity="0"/>
	<path id="Shape (Stroke)" d="M12.7051 4.25635C13.8301 3.13037 15.3555 2.49805 16.9473 2.49805C18.5391 2.49805 20.0664 3.13037 21.1914 4.25635C22.3164 5.38135 22.9492 6.9082 22.9492 8.5C22.9492 10.0918 22.3184 11.6182 21.1914 12.7437L12.3516 21.5835C12.1562 21.7788 11.8398 21.7788 11.6445 21.5835L2.80469 12.7437C0.460938 10.3999 0.460938 6.6001 2.80469 4.25635C5.14844 1.9126 8.94727 1.9126 11.291 4.25635L11.998 4.96289L12.7051 4.25635ZM16.9473 3.49805C15.6211 3.49805 14.3496 4.02539 13.4121 4.96338L12.3516 6.02344C12.2578 6.11719 12.1309 6.16992 11.998 6.16992C11.8652 6.16992 11.7383 6.11719 11.6445 6.02344L10.584 4.96338C8.63086 3.01025 5.46484 3.01025 3.51172 4.96338C1.55859 6.9165 1.55859 10.083 3.51172 12.0361L11.998 20.5229L20.4844 12.0361C21.4219 11.0986 21.9492 9.82617 21.9492 8.5C21.9492 7.17334 21.4238 5.90137 20.4844 4.96338C19.5469 4.02539 18.2754 3.49805 16.9473 3.49805Z" fill="#414141" fill-opacity="1.000000" fill-rule="evenodd"/>
</svg>
