<svg width="24.000000" height="24.000000" viewBox="0 0 24 24" fill="none" xmlns="http://www.w3.org/2000/svg" xmlns:xlink="http://www.w3.org/1999/xlink">
	<desc>
			Created with Pixso.
	</desc>
	<defs/>
	<rect id="feather-icon / share-2" width="24.000000" height="24.000000" fill="#FFFFFF" fill-opacity="0"/>
	<path id="Oval (Stroke)" d="M14.5 5C14.5 3.06702 16.0669 1.5 18 1.5C19.9331 1.5 21.5 3.06702 21.5 5C21.5 6.93298 19.9331 8.5 18 8.5C16.0669 8.5 14.5 6.93298 14.5 5ZM18 2.5C16.6191 2.5 15.5 3.61929 15.5 5C15.5 6.38071 16.6191 7.5 18 7.5C19.3809 7.5 20.5 6.38071 20.5 5C20.5 3.61929 19.3809 2.5 18 2.5Z" fill="#414141" fill-opacity="1.000000" fill-rule="evenodd"/>
	<path id="Oval (Stroke)" d="M2.5 12C2.5 10.067 4.06689 8.5 6 8.5C7.93311 8.5 9.5 10.067 9.5 12C9.5 13.933 7.93311 15.5 6 15.5C4.06689 15.5 2.5 13.933 2.5 12ZM6 9.5C4.61914 9.5 3.5 10.6193 3.5 12C3.5 13.3807 4.61914 14.5 6 14.5C7.38086 14.5 8.5 13.3807 8.5 12C8.5 10.6193 7.38086 9.5 6 9.5Z" fill="#414141" fill-opacity="1.000000" fill-rule="evenodd"/>
	<path id="Oval (Stroke)" d="M14.5 19C14.5 17.067 16.0669 15.5 18 15.5C19.9331 15.5 21.5 17.067 21.5 19C21.5 20.933 19.9331 22.5 18 22.5C16.0669 22.5 14.5 20.933 14.5 19ZM18 16.5C16.6191 16.5 15.5 17.6193 15.5 19C15.5 20.3807 16.6191 21.5 18 21.5C19.3809 21.5 20.5 20.3807 20.5 19C20.5 17.6193 19.3809 16.5 18 16.5Z" fill="#414141" fill-opacity="1.000000" fill-rule="evenodd"/>
	<path id="Shape (Stroke)" d="M8.15771 13.2583C8.29688 13.0197 8.60303 12.939 8.8418 13.078L15.6719 17.058C15.9102 17.197 15.9907 17.5031 15.8521 17.7417C15.7129 17.9803 15.4067 18.061 15.168 17.922L8.33838 13.942C8.09961 13.803 8.01904 13.4969 8.15771 13.2583Z" fill="#414141" fill-opacity="1.000000" fill-rule="evenodd"/>
	<path id="Shape (Stroke)" d="M15.8418 6.258C15.981 6.49649 15.9004 6.80267 15.6621 6.94183L8.8418 10.9218C8.60352 11.061 8.29736 10.9805 8.1582 10.742C8.01904 10.5035 8.09961 10.1973 8.33789 10.0582L15.1577 6.07816C15.3965 5.93896 15.7026 6.01947 15.8418 6.258Z" fill="#414141" fill-opacity="1.000000" fill-rule="evenodd"/>
</svg>
